<svg aria-hidden="true" style="position: absolute; width: 0; height: 0; overflow: hidden;"
  version="1.1" xmlns="http://www.w3.org/2000/svg" xmlns:xlink="http://www.w3.org/1999/xlink">
  <defs>
    <symbol id="icon-trello" viewBox="0 0 24 24">
      <path
        d="M5 2c-0.828 0-1.58 0.337-2.121 0.879s-0.879 1.293-0.879 2.121v14c0 0.828 0.337 1.58 0.879 2.121s1.293 0.879 2.121 0.879h14c0.828 0 1.58-0.337 2.121-0.879s0.879-1.293 0.879-2.121v-14c0-0.828-0.337-1.58-0.879-2.121s-1.293-0.879-2.121-0.879zM5 4h14c0.276 0 0.525 0.111 0.707 0.293s0.293 0.431 0.293 0.707v14c0 0.276-0.111 0.525-0.293 0.707s-0.431 0.293-0.707 0.293h-14c-0.276 0-0.525-0.111-0.707-0.293s-0.293-0.431-0.293-0.707v-14c0-0.276 0.111-0.525 0.293-0.707s0.431-0.293 0.707-0.293zM7 6c-0.552 0-1 0.448-1 1v9c0 0.552 0.448 1 1 1h3c0.552 0 1-0.448 1-1v-9c0-0.552-0.448-1-1-1zM8 8h1v7h-1zM14 6c-0.552 0-1 0.448-1 1v5c0 0.552 0.448 1 1 1h3c0.552 0 1-0.448 1-1v-5c0-0.552-0.448-1-1-1zM15 8h1v3h-1z"></path>
    </symbol>
    <symbol id="icon-light" viewBox="0 0 20 20">
      <path
        d="M2.969 15.469l1.484-1.523 1.172 1.172-1.484 1.523zM9.18 18.711v-2.461h1.641v2.461h-1.641zM10 4.57q2.070 0 3.535 1.465t1.465 3.535-1.465 3.535-3.535 1.465-3.535-1.465-1.465-3.535 1.465-3.535 3.535-1.465zM16.68 8.75h2.5v1.68h-2.5v-1.68zM14.375 15.117l1.172-1.133 1.484 1.484-1.172 1.172zM17.031 3.711l-1.484 1.484-1.172-1.172 1.484-1.484zM10.82 0.469v2.461h-1.641v-2.461h1.641zM3.32 8.75v1.68h-2.5v-1.68h2.5zM5.625 4.023l-1.172 1.172-1.484-1.484 1.172-1.172z"></path>
    </symbol>
    <symbol id="icon-dark" viewBox="0 0 20 20">
      <path
        d="M11.68 18.32q-3.477 0-5.918-2.441t-2.441-5.879 2.441-5.879 5.918-2.441q2.266 0 4.141 1.094-1.914 1.094-3.027 3.027t-1.113 4.199 1.113 4.199 3.027 3.027q-1.875 1.094-4.141 1.094z"></path>
    </symbol>
    <symbol id="icon-menu" viewBox="0 0 20 20">
      <path
        d="M10.001 7.8c-1.215 0-2.201 0.985-2.201 2.2s0.986 2.2 2.201 2.2c1.215 0 2.199-0.985 2.199-2.2s-0.984-2.2-2.199-2.2zM10.001 5.2c1.215 0 2.199-0.986 2.199-2.2s-0.984-2.2-2.199-2.2c-1.215 0-2.201 0.985-2.201 2.2s0.986 2.2 2.201 2.2zM10.001 14.8c-1.215 0-2.201 0.985-2.201 2.2s0.986 2.2 2.201 2.2c1.215 0 2.199-0.985 2.199-2.2s-0.984-2.2-2.199-2.2z"></path>
    </symbol>
    <symbol id="icon-edit" viewBox="0 0 24 24">
      <path
        d="M20.719 7.031l-1.828 1.828-3.75-3.75 1.828-1.828q0.281-0.281 0.703-0.281t0.703 0.281l2.344 2.344q0.281 0.281 0.281 0.703t-0.281 0.703zM3 17.25l11.063-11.063 3.75 3.75-11.063 11.063h-3.75v-3.75z"></path>
    </symbol>
    <symbol id="icon-delete" viewBox="0 0 24 24">
      <path
        d="M15.516 3.984h3.469v2.016h-13.969v-2.016h3.469l1.031-0.984h4.969zM8.438 11.859l2.156 2.156-2.109 2.109 1.406 1.406 2.109-2.109 2.109 2.109 1.406-1.406-2.109-2.109 2.109-2.156-1.406-1.406-2.109 2.156-2.109-2.156zM6 18.984v-12h12v12q0 0.797-0.609 1.406t-1.406 0.609h-7.969q-0.797 0-1.406-0.609t-0.609-1.406z"></path>
    </symbol>
    <symbol id="icon-horizontal-dots" viewBox="0 0 24 24">
      <path
        d="M12 9.984q0.797 0 1.406 0.609t0.609 1.406-0.609 1.406-1.406 0.609-1.406-0.609-0.609-1.406 0.609-1.406 1.406-0.609zM18 9.984q0.797 0 1.406 0.609t0.609 1.406-0.609 1.406-1.406 0.609-1.406-0.609-0.609-1.406 0.609-1.406 1.406-0.609zM6 9.984q0.797 0 1.406 0.609t0.609 1.406-0.609 1.406-1.406 0.609-1.406-0.609-0.609-1.406 0.609-1.406 1.406-0.609z"></path>
    </symbol>
  </defs>
</svg>