<svg aria-hidden="true" style="position: absolute; width: 0; height: 0; overflow: hidden;"
  version="1.1" xmlns="http://www.w3.org/2000/svg" xmlns:xlink="http://www.w3.org/1999/xlink">
  <defs>
    <symbol id="icon-trello" viewBox="0 0 24 24">
      <path
        d="M19.5 10V5a.5.5 0 0 0-.5-.5h-4.5V10h5zm0 1.5h-5v8H19a.5.5 0 0 0 .5-.5v-7.5zm-6.5-7H5a.5.5 0 0 0-.5.5v14c0 .28.22.5.5.5h8v-15zM5 3h14a2 2 0 0 1 2 2v14a2 2 0 0 1-2 2H5a2 2 0 0 1-2-2V5c0-1.1.9-2 2-2z"></path>
    </symbol>
    <symbol id="icon-clear" viewBox="0 0 24 24">
      <path
        d="M18.984 6.422l-5.578 5.578 5.578 5.578-1.406 1.406-5.578-5.578-5.578 5.578-1.406-1.406 5.578-5.578-5.578-5.578 1.406-1.406 5.578 5.578 5.578-5.578z"></path>
    </symbol>
    <symbol id="icon-light" viewBox="0 0 20 20">
      <path
        d="M2.969 15.469l1.484-1.523 1.172 1.172-1.484 1.523zM9.18 18.711v-2.461h1.641v2.461h-1.641zM10 4.57q2.070 0 3.535 1.465t1.465 3.535-1.465 3.535-3.535 1.465-3.535-1.465-1.465-3.535 1.465-3.535 3.535-1.465zM16.68 8.75h2.5v1.68h-2.5v-1.68zM14.375 15.117l1.172-1.133 1.484 1.484-1.172 1.172zM17.031 3.711l-1.484 1.484-1.172-1.172 1.484-1.484zM10.82 0.469v2.461h-1.641v-2.461h1.641zM3.32 8.75v1.68h-2.5v-1.68h2.5zM5.625 4.023l-1.172 1.172-1.484-1.484 1.172-1.172z"></path>
    </symbol>
    <symbol id="icon-dark" viewBox="0 0 20 20">
      <path
        d="M11.68 18.32q-3.477 0-5.918-2.441t-2.441-5.879 2.441-5.879 5.918-2.441q2.266 0 4.141 1.094-1.914 1.094-3.027 3.027t-1.113 4.199 1.113 4.199 3.027 3.027q-1.875 1.094-4.141 1.094z"></path>
    </symbol>
    <symbol id="icon-menu" viewBox="0 0 20 20">
      <path
        d="M10.001 7.8c-1.215 0-2.201 0.985-2.201 2.2s0.986 2.2 2.201 2.2c1.215 0 2.199-0.985 2.199-2.2s-0.984-2.2-2.199-2.2zM10.001 5.2c1.215 0 2.199-0.986 2.199-2.2s-0.984-2.2-2.199-2.2c-1.215 0-2.201 0.985-2.201 2.2s0.986 2.2 2.201 2.2zM10.001 14.8c-1.215 0-2.201 0.985-2.201 2.2s0.986 2.2 2.201 2.2c1.215 0 2.199-0.985 2.199-2.2s-0.984-2.2-2.199-2.2z"></path>
    </symbol>
    <symbol id="icon-edit" viewBox="0 0 24 24">
      <path
        d="M20.719 7.031l-1.828 1.828-3.75-3.75 1.828-1.828q0.281-0.281 0.703-0.281t0.703 0.281l2.344 2.344q0.281 0.281 0.281 0.703t-0.281 0.703zM3 17.25l11.063-11.063 3.75 3.75-11.063 11.063h-3.75v-3.75z"></path>
    </symbol>
    <symbol id="icon-delete" viewBox="0 0 24 24">
      <path
        d="M15.516 3.984h3.469v2.016h-13.969v-2.016h3.469l1.031-0.984h4.969zM8.438 11.859l2.156 2.156-2.109 2.109 1.406 1.406 2.109-2.109 2.109 2.109 1.406-1.406-2.109-2.109 2.109-2.156-1.406-1.406-2.109 2.156-2.109-2.156zM6 18.984v-12h12v12q0 0.797-0.609 1.406t-1.406 0.609h-7.969q-0.797 0-1.406-0.609t-0.609-1.406z"></path>
    </symbol>
    <symbol id="icon-horizontal-dots" viewBox="0 0 24 24">
      <path
        d="M12 9.984q0.797 0 1.406 0.609t0.609 1.406-0.609 1.406-1.406 0.609-1.406-0.609-0.609-1.406 0.609-1.406 1.406-0.609zM18 9.984q0.797 0 1.406 0.609t0.609 1.406-0.609 1.406-1.406 0.609-1.406-0.609-0.609-1.406 0.609-1.406 1.406-0.609zM6 9.984q0.797 0 1.406 0.609t0.609 1.406-0.609 1.406-1.406 0.609-1.406-0.609-0.609-1.406 0.609-1.406 1.406-0.609z"></path>
    </symbol>
    <symbol id="icon-plus" viewBox="0 0 24 24">
      <path fill-rule="evenodd" d="M9 17a1 1 0 102 0v-6h6a1 1 0 100-2h-6V3a1 1 0 10-2 0v6H3a1 1 0 000 2h6v6z"></path>
    </symbol>

    <symbol id="icon-high-priority" fill="#dcd8fe90" aria-label="High Priority">
      <rect x="1" y="8" width="3" height="6" rx="1"></rect>
      <rect x="6" y="5" width="3" height="9" rx="1"></rect>
      <rect x="11" y="2" width="3" height="12" rx="1"></rect>
    </symbol>
    <symbol id="icon-medium-priority" fill="#dcd8fe90" aria-label="Medium Priority">
      <rect x="1" y="8" width="3" height="6" rx="1"></rect>
      <rect x="6" y="5" width="3" height="9" rx="1"></rect>
      <rect x="11" y="2" width="3" height="12" rx="1" fill-opacity="0.4"></rect>
    </symbol>
    <symbol id="icon-low-priority" fill="#dcd8fe90" aria-label="Low Priority">
      <rect x="1" y="8" width="3" height="6" rx="1"></rect>
      <rect x="6" y="5" width="3" height="9" rx="1" fill-opacity="0.4"></rect>
      <rect x="11" y="2" width="3" height="12" rx="1" fill-opacity="0.4"></rect>
    </symbol>
  </defs>
</svg>