<svg aria-hidden="true" style="position: absolute; width: 0; height: 0; overflow: hidden;" version="1.1" xmlns="http://www.w3.org/2000/svg" xmlns:xlink="http://www.w3.org/1999/xlink">
  <defs>
    <symbol id="icon-dashboard" viewBox="0 0 24 24">
      <path d="M12.984 3h8.016v6h-8.016v-6zM12.984 21v-9.984h8.016v9.984h-8.016zM3 21v-6h8.016v6h-8.016zM3 12.984v-9.984h8.016v9.984h-8.016z"></path>
    </symbol>
    <symbol id="icon-light" viewBox="0 0 20 20">
      <path d="M2.969 15.469l1.484-1.523 1.172 1.172-1.484 1.523zM9.18 18.711v-2.461h1.641v2.461h-1.641zM10 4.57q2.070 0 3.535 1.465t1.465 3.535-1.465 3.535-3.535 1.465-3.535-1.465-1.465-3.535 1.465-3.535 3.535-1.465zM16.68 8.75h2.5v1.68h-2.5v-1.68zM14.375 15.117l1.172-1.133 1.484 1.484-1.172 1.172zM17.031 3.711l-1.484 1.484-1.172-1.172 1.484-1.484zM10.82 0.469v2.461h-1.641v-2.461h1.641zM3.32 8.75v1.68h-2.5v-1.68h2.5zM5.625 4.023l-1.172 1.172-1.484-1.484 1.172-1.172z"></path>
    </symbol>
    <symbol id="icon-dark" viewBox="0 0 20 20">
      <path d="M11.68 18.32q-3.477 0-5.918-2.441t-2.441-5.879 2.441-5.879 5.918-2.441q2.266 0 4.141 1.094-1.914 1.094-3.027 3.027t-1.113 4.199 1.113 4.199 3.027 3.027q-1.875 1.094-4.141 1.094z"></path>
    </symbol>
  </defs>
</svg>